# xmcd CD database file
# Copyright (C) 1995-1998 Ti Kan
#
# Track frame offsets:
#	150
#	2558
#	20631
#	34556
#	49510
#	66554
#	81485
#	90786
#	105607
#	117662
#	135656
#	149294
#	168035
#	186757
#
# Disc length: 2521 seconds
#
# Revision: 2
# Processed by: cddbd v1.4PL0 Copyright (c) Steve Scherf et al.
# Submitted via: CDex 1.30Release
#
DISCID=b309d70e
DTITLE=Various Artist - O Melhor da Música Setaneja - Posto São Paulo
DYEAR=1900
DGENRE=Country
TTITLE0=Jingle - Posto São Paulo
TTITLE1=Festa de Rodeio - Leandro and Leonardo
TTITLE2=Apaixonei de Novo - Crystian and Ralf
TTITLE3=Em me Amarrei - João Paulo and Daniel
TTITLE4=Viajante Solitário - Cesar and Paulinho
TTITLE5=Vanerão do Coroa - Sérgio Reis
TTITLE6=Estrada da Vida - Milonário and José Rico
TTITLE7=Mexe Mexe - Leandro and Leonardo
TTITLE8=Pingo D´água - Tonico and Tinoco
TTITLE9=De Mau com Você - Rick and Renner
TTITLE10=Amante da Estrada - Milionário and José Rico
TTITLE11=Ventos Uivantes - Sérgio Reis
TTITLE12=Nerole Valente - João Paulo and Daniel
TTITLE13=Jingle - Posto São Paulo
EXTD=ID3G:   2
EXTT0=
EXTT1=
EXTT2=
EXTT3=
EXTT4=
EXTT5=
EXTT6=
EXTT7=
EXTT8=
EXTT9=
EXTT10=
EXTT11=
EXTT12=
EXTT13=
PLAYORDER=
